# xmcd
#
# Track frame offsets:
#	150
#	18449
#	34599
#	61315
#	85407
#	104394
#	125473
#	143512
#	177045
#	195895
#	213345
#	243025
#
# Disc length: 3484 seconds
# Revision: 0
# Processed by: cddbd v1.5.2PL0 Copyright (c) Steve Scherf et al.
# Submitted via: dBpowerAMP V12.0
#
DISCID=910d9a0c
DTITLE=Augury - Concealed
DYEAR=2004
DGENRE=Metal
TTITLE0=Beatus
TTITLE1=Ever Know Peace Again
TTITLE2=Cosmic Migration
TTITLE3=Nocebo
TTITLE4=Alien Shores
TTITLE5=In Russian Dolls Universes
TTITLE6=Becoming God
TTITLE7=The Lair of Purity
TTITLE8=From Eden Estranged
TTITLE9=As Sea Devours Land
TTITLE10=Skyless (2006 Demo)
TTITLE11=Faith Puppeteers (2006 Demo)
EXTD=
EXTT0=
EXTT1=
EXTT2=
EXTT3=
EXTT4=
EXTT5=
EXTT6=
EXTT7=
EXTT8=
EXTT9=
EXTT10=
EXTT11=
PLAYORDER=
